# xmcd CD database file
#
# Track frame offsets:
#	150
#	33616
#	61046
#	83836
#	99907
#	111461
#
# Disc length: 1983 seconds
#
# Revision: 0
# Processed by: cddbd v1.5.2PL0 Copyright (c) Steve Scherf et al.
# Submitted via: CDex 1.51
#
DISCID=4407bd06
DTITLE=Orgone - The Goliath
DYEAR=2007
DGENRE=Salsa
TTITLE0=Lessons of teh Mesopotamia (The Century of Filth)
TTITLE1=The Goliath (Drained Trough of Resistance)
TTITLE2=The Levitating Chandelier
TTITLE3=Bamboo Cannons (Loaded with Dust)
TTITLE4=Vowelic Drone
TTITLE5=Vomited Hyacinths (First Act of Beauty)
EXTD=YEAR: 2007
EXTT0=
EXTT1=
EXTT2=
EXTT3=
EXTT4=
EXTT5=
PLAYORDER=
